<svg width="1440" height="900" viewBox="0 0 1440 900" fill="none" xmlns="http://www.w3.org/2000/svg">
  <defs>
    <linearGradient id="bg" x1="200" y1="40" x2="1220" y2="860" gradientUnits="userSpaceOnUse">
      <stop stop-color="#EEF6FF"/>
      <stop offset="0.55" stop-color="#DCEBFF"/>
      <stop offset="1" stop-color="#F7F7FA"/>
    </linearGradient>
    <linearGradient id="glass" x1="0" y1="0" x2="1" y2="1">
      <stop stop-color="#FFFFFF" stop-opacity="0.82"/>
      <stop offset="1" stop-color="#FFFFFF" stop-opacity="0.34"/>
    </linearGradient>
  </defs>
  <rect width="1440" height="900" fill="url(#bg)"/>
  <circle cx="1220" cy="120" r="200" fill="#84D8FF" fill-opacity="0.28"/>
  <circle cx="170" cy="760" r="220" fill="#FFBFA9" fill-opacity="0.22"/>
  <rect x="20" y="20" width="1400" height="860" rx="32" fill="#FFFFFF" fill-opacity="0.2" stroke="#FFFFFF" stroke-opacity="0.54"/>
  <rect x="40" y="40" width="1360" height="60" rx="22" fill="url(#glass)" stroke="#FFFFFF" stroke-opacity="0.6"/>
  <circle cx="74" cy="70" r="18" fill="#0F172A" fill-opacity="0.84"/>
  <rect x="66" y="63" width="16" height="2" rx="1" fill="#FFFFFF"/>
  <rect x="66" y="68" width="16" height="2" rx="1" fill="#FFFFFF"/>
  <rect x="66" y="73" width="16" height="2" rx="1" fill="#FFFFFF"/>
  <text x="102" y="78" fill="#0F172A" font-size="28" font-family="Arial, sans-serif" font-weight="700">Immo3D</text>
  <text x="202" y="77" fill="#52627C" font-size="14" font-family="Arial, sans-serif">glass light navigator</text>
  <rect x="1254" y="53" width="122" height="34" rx="17" fill="#0F172A" fill-opacity="0.84"/>
  <text x="1288" y="75" fill="#F8FAFC" font-size="14" font-family="Arial, sans-serif" font-weight="700">Voir la fiche</text>

  <rect x="40" y="120" width="268" height="730" rx="28" fill="url(#glass)" stroke="#FFFFFF" stroke-opacity="0.65"/>
  <text x="62" y="158" fill="#5F6E86" font-size="12" font-family="Arial, sans-serif" letter-spacing="2">PANNEAU</text>
  <rect x="62" y="172" width="224" height="54" rx="18" fill="#FFFFFF" fill-opacity="0.5" stroke="#FFFFFF"/>
  <text x="82" y="206" fill="#0F172A" font-size="24" font-family="Arial, sans-serif" font-weight="700">62750</text>
  <rect x="62" y="242" width="224" height="44" rx="16" fill="#0F172A"/>
  <text x="112" y="270" fill="#F8FAFC" font-size="15" font-family="Arial, sans-serif" font-weight="700">Synchroniser Yanport</text>
  <rect x="62" y="320" width="224" height="150" rx="22" fill="#FFFFFF" fill-opacity="0.35" stroke="#FFFFFF"/>
  <text x="82" y="356" fill="#0F172A" font-size="16" font-family="Arial, sans-serif" font-weight="700">Filtres actifs</text>
  <text x="82" y="392" fill="#52627C" font-size="15" font-family="Arial, sans-serif">• Nouveaux &lt; 7 jours</text>
  <text x="82" y="424" fill="#52627C" font-size="15" font-family="Arial, sans-serif">• Sans adresse</text>
  <text x="82" y="456" fill="#52627C" font-size="15" font-family="Arial, sans-serif">• Blacklist masquée</text>
  <rect x="62" y="494" width="224" height="146" rx="22" fill="#FFFFFF" fill-opacity="0.35" stroke="#FFFFFF"/>
  <text x="82" y="530" fill="#0F172A" font-size="16" font-family="Arial, sans-serif" font-weight="700">Aperçu bien</text>
  <text x="82" y="566" fill="#0F172A" font-size="28" font-family="Arial, sans-serif" font-weight="700">217 000 €</text>
  <text x="82" y="598" fill="#52627C" font-size="15" font-family="Arial, sans-serif">125 m² • 4 jours</text>
  <rect x="62" y="666" width="224" height="160" rx="22" fill="#D4C2AE" fill-opacity="0.65"/>

  <rect x="330" y="120" width="770" height="730" rx="30" fill="url(#glass)" stroke="#FFFFFF" stroke-opacity="0.65"/>
  <rect x="354" y="144" width="722" height="682" rx="24" fill="#EEF2D9" fill-opacity="0.58"/>
  <path d="M404 230L530 156L690 208L812 158L950 240L1018 418L970 620L786 704L602 660L458 690L388 500L432 328Z" fill="none" stroke="#FC5A4E" stroke-width="5"/>
  <g stroke="#CFD3B8" stroke-width="2.5">
    <path d="M392 300H1040"/><path d="M392 420H1040"/><path d="M392 540H1040"/>
    <path d="M510 160V744"/><path d="M680 160V744"/><path d="M850 160V744"/>
  </g>
  <g fill="#FF4D4D" stroke="#FFFFFF" stroke-width="4">
    <circle cx="620" cy="354" r="10"/><circle cx="710" cy="332" r="10"/><circle cx="804" cy="390" r="10"/>
    <circle cx="580" cy="472" r="10"/><circle cx="706" cy="458" r="10"/><circle cx="886" cy="432" r="10"/>
  </g>
  <text x="580" y="338" fill="#4A5568" font-size="19" font-family="Arial, sans-serif" font-weight="700">234k</text>
  <text x="864" y="416" fill="#4A5568" font-size="19" font-family="Arial, sans-serif" font-weight="700">389k</text>

  <rect x="1120" y="120" width="280" height="730" rx="28" fill="url(#glass)" stroke="#FFFFFF" stroke-opacity="0.65"/>
  <text x="1144" y="158" fill="#5F6E86" font-size="12" font-family="Arial, sans-serif" letter-spacing="2">FICHE RAPIDE</text>
  <rect x="1144" y="178" width="232" height="150" rx="22" fill="#FFFFFF" fill-opacity="0.42" stroke="#FFFFFF"/>
  <text x="1164" y="214" fill="#0F172A" font-size="16" font-family="Arial, sans-serif" font-weight="700">iad France Stessie LEBAS</text>
  <text x="1164" y="248" fill="#52627C" font-size="15" font-family="Arial, sans-serif">Prix : 217 000 EUR</text>
  <text x="1164" y="278" fill="#52627C" font-size="15" font-family="Arial, sans-serif">Surface : 125 m²</text>
  <text x="1164" y="308" fill="#52627C" font-size="15" font-family="Arial, sans-serif">Ancienneté : 4 jours</text>
  <rect x="1144" y="350" width="232" height="110" rx="22" fill="#FFFFFF" fill-opacity="0.35" stroke="#FFFFFF"/>
  <text x="1164" y="388" fill="#8CA0B3" font-size="15" font-family="Arial, sans-serif">Ajoute une note…</text>
  <rect x="1144" y="484" width="232" height="142" rx="22" fill="#FFFFFF" fill-opacity="0.35" stroke="#FFFFFF"/>
  <text x="1164" y="520" fill="#0F172A" font-size="16" font-family="Arial, sans-serif" font-weight="700">Liens</text>
  <text x="1164" y="556" fill="#52627C" font-size="15" font-family="Arial, sans-serif">Yanport</text>
  <text x="1164" y="586" fill="#52627C" font-size="15" font-family="Arial, sans-serif">Leboncoin</text>
  <text x="1164" y="616" fill="#52627C" font-size="15" font-family="Arial, sans-serif">SeLoger</text>
  <rect x="1144" y="650" width="232" height="176" rx="22" fill="#D9C8B8" fill-opacity="0.72"/>
</svg>